<svg width="50" height="50" viewBox="0 0 50 50" fill="none" xmlns="http://www.w3.org/2000/svg">
<path d="M49.2171 39.9791C49.6495 39.9791 50 39.6287 50 39.1962V11.6389C50 11.4312 49.9176 11.2322 49.7708 11.0853L41.4201 2.73457C41.2731 2.58779 41.0741 2.50537 40.8665 2.50537H23.2776V2.34863C23.2776 1.05361 22.224 0 20.929 0H2.34863C1.05361 0 0 1.05361 0 2.34863V27.6096C0 28.9046 1.05361 29.9582 2.34863 29.9582H8.35068V49.2171C8.35068 49.6495 8.70107 50 9.13359 50H49.2171C49.6495 50 50 49.6496 50 49.2171V43.3716C50 42.9392 49.6496 42.5887 49.2171 42.5887C48.7847 42.5887 48.4342 42.9391 48.4342 43.3716V48.4342H9.9165V29.9582H20.929C22.224 29.9582 23.2776 28.9046 23.2776 27.6096V14.1436C23.2776 13.7111 22.9272 13.3606 22.4947 13.3606C22.0622 13.3606 21.7118 13.711 21.7118 14.1436V27.6097C21.7118 28.0414 21.3606 28.3926 20.9289 28.3926H2.34863C1.91689 28.3926 1.56572 28.0414 1.56572 27.6097V2.34863C1.56572 1.91689 1.91689 1.56572 2.34863 1.56572H20.929C21.3607 1.56572 21.7119 1.91689 21.7119 2.34863V9.96865C21.7119 10.4011 22.0623 10.7516 22.4948 10.7516C22.9273 10.7516 23.2777 10.4012 23.2777 9.96865V4.071H40.0862C40.0851 4.08828 40.0836 4.10557 40.0836 4.12314V11.6388C40.0836 12.0712 40.434 12.4217 40.8665 12.4217H48.3821C48.3998 12.4217 48.417 12.4202 48.4343 12.419V39.1963C48.4343 39.6287 48.7847 39.9791 49.2171 39.9791ZM41.6493 10.856V5.17812L47.3271 10.856H41.6493Z" fill="#3498DB"/>
<path d="M19.3633 35.9081H14.1441C13.7116 35.9081 13.3611 36.2585 13.3611 36.6911C13.3611 37.1235 13.7115 37.474 14.1441 37.474H19.3633C19.7957 37.474 20.1462 37.1236 20.1462 36.6911C20.1461 36.2586 19.7957 35.9081 19.3633 35.9081Z" fill="#3498DB"/>
<path d="M19.3633 40.0835H14.1441C13.7116 40.0835 13.3611 40.4339 13.3611 40.8664C13.3611 41.2988 13.7115 41.6493 14.1441 41.6493H19.3633C19.7957 41.6493 20.1462 41.2989 20.1462 40.8664C20.1461 40.4339 19.7957 40.0835 19.3633 40.0835Z" fill="#3498DB"/>
<path d="M35.0209 24.217C31.8211 24.217 28.8385 25.4888 26.6224 27.7982C26.323 28.1102 26.3331 28.6057 26.6451 28.9051C26.9572 29.2046 27.4527 29.1944 27.7521 28.8824C29.6701 26.8836 32.2517 25.7829 35.0209 25.7829C40.5752 25.7829 45.0939 30.3016 45.0939 35.8559C45.0939 41.4102 40.5752 45.929 35.0209 45.929C29.4666 45.929 24.9479 41.4102 24.9479 35.8559C24.9479 34.2155 25.3295 32.6515 26.0822 31.2074C26.282 30.8239 26.1332 30.3511 25.7499 30.1512C25.3665 29.9517 24.8937 30.1002 24.6938 30.4836C23.8358 32.13 23.3821 33.9877 23.3821 35.8559C23.3821 42.2736 28.6033 47.4948 35.021 47.4948C41.4387 47.4948 46.6599 42.2736 46.6599 35.8559C46.6599 29.4382 41.4385 24.217 35.0209 24.217Z" fill="#3498DB"/>
<path d="M36.8081 35.1774L35.5949 35.1417V30.7932H38.3611C38.7935 30.7932 39.144 30.4428 39.144 30.0103C39.144 29.5779 38.7936 29.2274 38.3611 29.2274H35.5949V28.3401C35.5949 27.9077 35.2445 27.5572 34.812 27.5572C34.3796 27.5572 34.0291 27.9076 34.0291 28.3401V29.2274H33.2462C31.9512 29.2274 30.8976 30.281 30.8976 31.576V34.29C30.8976 35.5807 31.9443 36.6318 33.2335 36.6386L34.0291 36.662V40.9183H31.6805C31.248 40.9183 30.8976 41.2687 30.8976 41.7012C30.8976 42.1337 31.2479 42.4841 31.6805 42.4841H34.0291V43.3714C34.0291 43.8039 34.3795 44.1544 34.812 44.1544C35.2444 44.1544 35.5949 43.804 35.5949 43.3714V42.4841H36.7953C38.0903 42.4841 39.1439 41.4305 39.1439 40.1355V37.5259C39.144 36.2353 38.0973 35.1843 36.8081 35.1774ZM34.0292 35.0957L33.2694 35.0733C33.2618 35.0731 33.2541 35.073 33.2464 35.073C32.8146 35.073 32.4635 34.7218 32.4635 34.2901V31.5761C32.4635 31.1444 32.8146 30.7932 33.2464 30.7932H34.0293V35.0957H34.0292ZM37.5783 40.1357C37.5783 40.5674 37.2271 40.9186 36.7954 40.9186H35.595V36.7083L36.7724 36.7429C36.78 36.7431 36.7877 36.7432 36.7954 36.7432C37.2271 36.7432 37.5783 37.0944 37.5783 37.5261V40.1357Z" fill="#3498DB"/>
<path d="M19.9895 2.50519H3.28807C2.85565 2.50519 2.50516 2.85558 2.50516 3.2881V7.46349C2.50516 7.89591 2.85555 8.2464 3.28807 8.2464H19.9895C20.422 8.2464 20.7724 7.89601 20.7724 7.46349V3.2881C20.7724 2.85568 20.4221 2.50519 19.9895 2.50519ZM19.2066 6.68058H4.07098V4.07101H19.2067V6.68058H19.2066Z" fill="#3498DB"/>
<path d="M6.6284 9.18585H3.28807C2.85565 9.18585 2.50516 9.53624 2.50516 9.96876V13.3091C2.50516 13.7415 2.85555 14.092 3.28807 14.092H6.6284C7.06082 14.092 7.41131 13.7416 7.41131 13.3091V9.96876C7.41121 9.53624 7.06082 9.18585 6.6284 9.18585ZM5.84549 12.5261H4.07098V10.7516H5.84549V12.5261Z" fill="#3498DB"/>
<path d="M13.309 9.18585H9.96864C9.53622 9.18585 9.18573 9.53624 9.18573 9.96876V13.3091C9.18573 13.7415 9.53612 14.092 9.96864 14.092H13.309C13.7414 14.092 14.0919 13.7416 14.0919 13.3091V9.96876C14.0919 9.53624 13.7414 9.18585 13.309 9.18585ZM12.5261 12.5261H10.7516V10.7516H12.5261V12.5261Z" fill="#3498DB"/>
<path d="M19.9895 9.18585H16.6492C16.2168 9.18585 15.8663 9.53624 15.8663 9.96876V13.3091C15.8663 13.7415 16.2167 14.092 16.6492 14.092H19.9895C20.422 14.092 20.7725 13.7416 20.7725 13.3091V9.96876C20.7725 9.53624 20.4221 9.18585 19.9895 9.18585ZM19.2066 12.5261H17.4321V10.7516H19.2066V12.5261Z" fill="#3498DB"/>
<path d="M6.6284 15.8664H3.28807C2.85565 15.8664 2.50516 16.2168 2.50516 16.6493V19.9896C2.50516 20.4221 2.85555 20.7725 3.28807 20.7725H6.6284C7.06082 20.7725 7.41131 20.4222 7.41131 19.9896V16.6493C7.41121 16.2168 7.06082 15.8664 6.6284 15.8664ZM5.84549 19.2066H4.07098V17.4321H5.84549V19.2066Z" fill="#3498DB"/>
<path d="M13.309 15.8664H9.96864C9.53622 15.8664 9.18573 16.2168 9.18573 16.6493V19.9896C9.18573 20.4221 9.53612 20.7725 9.96864 20.7725H13.309C13.7414 20.7725 14.0919 20.4222 14.0919 19.9896V16.6493C14.0919 16.2168 13.7414 15.8664 13.309 15.8664ZM12.5261 19.2066H10.7516V17.4321H12.5261V19.2066Z" fill="#3498DB"/>
<path d="M6.6284 22.547H3.28807C2.85565 22.547 2.50516 22.8974 2.50516 23.3299V26.6702C2.50516 27.1026 2.85555 27.4531 3.28807 27.4531H6.6284C7.06082 27.4531 7.41131 27.1027 7.41131 26.6702V23.3299C7.41121 22.8974 7.06082 22.547 6.6284 22.547ZM5.84549 25.8873H4.07098V24.1128H5.84549V25.8873Z" fill="#3498DB"/>
<path d="M13.309 22.547H9.96864C9.53622 22.547 9.18573 22.8974 9.18573 23.3299V26.6702C9.18573 27.1026 9.53612 27.4531 9.96864 27.4531H13.309C13.7414 27.4531 14.0919 27.1027 14.0919 26.6702V23.3299C14.0919 22.8974 13.7414 22.547 13.309 22.547ZM12.5261 25.8873H10.7516V24.1128H12.5261V25.8873Z" fill="#3498DB"/>
<path d="M19.9895 15.8664H16.6492C16.2168 15.8664 15.8663 16.2168 15.8663 16.6493V26.6702C15.8663 27.1026 16.2167 27.4531 16.6492 27.4531H19.9895C20.422 27.4531 20.7725 27.1027 20.7725 26.6702V16.6493C20.7725 16.2168 20.4221 15.8664 19.9895 15.8664ZM19.2066 25.8873H17.4321V17.4322H19.2066V25.8873Z" fill="#3498DB"/>
<path d="M46.4157 18.4609L42.1513 14.4114C41.8379 14.1136 41.3424 14.1266 41.0445 14.44C40.7467 14.7535 40.7597 15.249 41.0731 15.5468L44.7549 19.0431L44.1051 19.6929L32.8493 8.43661C32.7399 8.32733 32.6008 8.25282 32.4492 8.22255L29.5482 7.64237L28.1517 6.10243C27.8611 5.78202 27.3658 5.7578 27.0458 6.04833C26.7256 6.33876 26.7014 6.83378 26.9917 7.15419C26.9917 7.15419 28.6015 8.91562 28.655 8.95087L29.1659 11.5057C29.1962 11.6572 29.2707 11.7964 29.38 11.9058L41.8541 24.38C42.312 24.8378 42.9134 25.0666 43.5149 25.0666C44.1163 25.0666 44.7177 24.8378 45.1755 24.38C45.1755 24.38 45.1755 24.38 45.1756 24.38L45.3232 24.2323C46.2387 23.3166 46.2387 21.8266 45.3232 20.9109L45.2124 20.8002L46.4303 19.5823C46.7372 19.2753 46.7306 18.7598 46.4157 18.4609ZM30.6548 10.9664L30.3412 9.39784L31.9097 9.71151L39.4552 17.2572L38.2005 18.5119L30.6548 10.9664ZM44.2161 23.1251L44.0687 23.2727C43.7632 23.5777 43.2666 23.578 42.9614 23.2727L39.3079 19.619L40.5625 18.3644L44.2161 22.018C44.5214 22.3231 44.5213 22.8198 44.2161 23.1251Z" fill="#3498DB"/>
</svg>
