<svg width="30" height="30" viewBox="0 0 30 30" fill="none" xmlns="http://www.w3.org/2000/svg">
<path d="M28.3438 0H1.65624C0.7422 0 0 0.7422 0 1.65624V28.3438C0 29.2578 0.7422 30 1.65624 30H15V18.125H11.4141V13.75H15V10.5156C15 6.64064 17.6875 4.53128 21.1484 4.53128C22.8047 4.53128 24.586 4.65628 25 4.71096V8.75784H22.2422C20.3594 8.75784 20 9.64848 20 10.961V13.75H24.4844L23.8984 18.125H20V30H28.3438C29.2578 30 30 29.2578 30 28.3438V1.65624C30 0.7422 29.2578 0 28.3438 0Z" fill="#054DC1"/>
</svg>
