<svg width="32" height="34" viewBox="0 0 32 34" fill="none" xmlns="http://www.w3.org/2000/svg">
<path d="M31.75 14.5L31.5859 13.8047H16.4688V20.2031H25.5C24.5625 24.6562 20.2109 27 16.6562 27C14.0703 27 11.3438 25.9141 9.53906 24.1641C7.6875 22.3672 6.50781 19.7188 6.50781 16.9922C6.50781 14.2969 7.71875 11.6016 9.48438 9.82812C11.2422 8.0625 13.9062 7.0625 16.5547 7.0625C19.5859 7.0625 21.7578 8.67188 22.5703 9.40625L27.1172 4.88281C25.7812 3.71094 22.1172 0.757812 16.4062 0.757812C12 0.757812 7.77344 2.44531 4.6875 5.52344C1.64062 8.55469 0.0625 12.9375 0.0625 17C0.0625 21.0625 1.55469 25.2344 4.50781 28.2891C7.66406 31.5469 12.1328 33.25 16.7344 33.25C20.9219 33.25 24.8906 31.6094 27.7188 28.6328C30.5 25.7031 31.9375 21.6484 31.9375 17.3984C31.9375 15.6094 31.7578 14.5469 31.75 14.5Z" fill="url(#paint0_angular)"/>
<defs>
<radialGradient id="paint0_angular" cx="0" cy="0" r="1" gradientUnits="userSpaceOnUse" gradientTransform="translate(16 17.0039) rotate(90) scale(16.2461 15.9375)">
<stop stop-color="#44D102"/>
<stop offset="0.442708" stop-color="#FFCB14" stop-opacity="0.921875"/>
<stop offset="0.9999" stop-color="#F00000" stop-opacity="0.775409"/>
<stop offset="1" stop-color="#FF0000" stop-opacity="0"/>
</radialGradient>
</defs>
</svg>
